# xmcd
#
# Track frame offsets: 
#        150
#        2111
#        19486
#        41739
#        63075
#        83590
#        100680
#        119460
#        138995
#        158955
#        179675
#
# Disc length: 2417 seconds
#
# Revision: 1
# Processed by: cddbd v1.5.2PL0 Copyright (c) Steve Scherf et al.
# Submitted via: ExactAudioCopyFreeDBPlugin 1.0
#
DISCID=8c096f0b
DTITLE=Donn T - Kaleidoscopic
DYEAR=2010
DGENRE=Rhythm and Blues
TTITLE0=Intro
TTITLE1=Luna Garden
TTITLE2=Kisses
TTITLE3=Ain't D' Ordinary
TTITLE4=Authenticity
TTITLE5=Look At (What U Startin')
TTITLE6=Astro Lovah
TTITLE7=Changing
TTITLE8=Beautiful Day
TTITLE9=Give
TTITLE10=Outrolude
EXTD=
EXTT0=
EXTT1=
EXTT2=
EXTT3=
EXTT4=
EXTT5=
EXTT6=
EXTT7=
EXTT8=
EXTT9=
EXTT10=
PLAYORDER=
